<svg height="40" viewBox="0 0 685.251 106.397" xmlns="http://www.w3.org/2000/svg">
  <path d="M11.228 73.438l6.299-12.012a16.154 16.154 0 01-.655-1.829q-.275-.959-.37-1.827a8.168 8.168 0 01-.049-.885 12.287 12.287 0 01.641-3.879 13.768 13.768 0 01.042-.125 15.14 15.14 0 011.904-3.76q1.618-2.412 3.45-3.422a5.622 5.622 0 012.752-.728 6.063 6.063 0 01.979.082 7.052 7.052 0 01.339.064 9687.253 9687.253 0 014.415-7.474q7.135-12.068 9.475-15.919a106.304 106.304 0 01.807-1.314l2.686-4.199Q51.462 5.127 58.201 2.93a15.328 15.328 0 014.687-.733 5.632 5.632 0 011.993.341 5.026 5.026 0 011.938 1.32q1.103 1.19 1.415 3.384a13.454 13.454 0 01.123 1.889q0 9.653-10.117 22.007a87.952 87.952 0 01-1.407 1.675L44.138 46.875q-3.369 3.662-6.445 7.52 1.385 1.594 2.589 2.81a39.978 39.978 0 00.389.388q1.367 1.343 2.271 1.343a3.921 3.921 0 00.576-.049q.822-.123 2.085-.562a37.095 37.095 0 001.39-.516q1.219-.479 2.638-1.119a88.57 88.57 0 002.35-1.105 112.107 112.107 0 002.509-1.264 122.181 122.181 0 005.029-2.758q4.345-2.528 6.709-4.322a22.36 22.36 0 001.006-.805q2.988-2.526 5.043-3.212a4.463 4.463 0 011.402-.255 5.934 5.934 0 01.888.062q.464.07.832.22a2.305 2.305 0 01.77.499 4.331 4.331 0 01.982 1.456 4.126 4.126 0 01.288 1.547 4.574 4.574 0 01-.161 1.133q-.39 1.509-1.719 3.701a29.607 29.607 0 01-2.19 3.112q-1.117 1.4-2.49 2.827a48.615 48.615 0 01-.398.409 61.965 61.965 0 01-4.27 3.93 76.945 76.945 0 01-3.128 2.491 65.295 65.295 0 01-8.862 5.639 58.118 58.118 0 01-9.473 4.004 34.218 34.218 0 01-4.657 1.154 25.855 25.855 0 01-4.351.384 11.284 11.284 0 01-3.517-.604q-1.522-.5-3.161-1.411a28.261 28.261 0 01-2.795-1.793 317.619 317.619 0 00-1.44 8.471 103.663 103.663 0 01-1.249 6.622 92.701 92.701 0 01-.338 1.459 48.924 48.924 0 01-1.574 5.268 42.367 42.367 0 01-.746 1.91 19.848 19.848 0 01-2.286 4.085 17.465 17.465 0 01-1.351 1.628 16.181 16.181 0 01-8.545 4.702 24.24 24.24 0 01-5.176.523 2.963 2.963 0 01-1.245-.257 2.903 2.903 0 01-1.001-.769q-1.563-1.855-1.27-4.223a16.174 16.174 0 01.266-1.493q.357-1.617 1.099-3.847a73.883 73.883 0 01.491-1.423 107.958 107.958 0 011.739-4.545q.938-2.304 2.065-4.812a174.076 174.076 0 01.151-.336 293.758 293.758 0 013.219-6.879 359.728 359.728 0 012.152-4.375zm376.367-17.725l-2.392 2.49a78.038 78.038 0 01-5.832 5.361 97.522 97.522 0 01-4.3 3.379 140.24 140.24 0 01-4.144 2.969q-3.29 2.262-6.037 3.819-7.484 4.154-13.944 5.261a26.982 26.982 0 01-4.562.403 21.24 21.24 0 01-5.872-.774 16.373 16.373 0 01-6.872-3.914q-3.266-3.116-4.021-6.492a9.379 9.379 0 01-.227-2.053q0-4.492.879-8.935a71.057 71.057 0 012.295-8.692 106.31 106.31 0 012.557-7.008q1.302-3.195 2.701-5.922a59.08 59.08 0 01.943-1.767 24.639 24.639 0 00.299-.581q.58-1.171.58-1.567h-6.299a12.295 12.295 0 01-2.154-.177q-2.047-.365-3.363-1.484a6.561 6.561 0 01-1.092-1.165 4.363 4.363 0 01-.862-2.594 8.963 8.963 0 01.062-1.093q.142-1.151.609-1.834a2.474 2.474 0 01.111-.15q.781-.976 1.953-1.416a7.147 7.147 0 011.19-.36q1.269-.278 3.084-.317a28.299 28.299 0 01.609-.006l11.962.049a.632.632 0 00.191-.134q.406-.38 1.238-1.744a37.051 37.051 0 00.134-.222l2.978-5.127q1.265-2.27 2.54-3.743a11.358 11.358 0 011.293-1.286 6.862 6.862 0 014.541-1.612q2.001 0 3.514.287a11.242 11.242 0 01.881.202 15.018 15.018 0 011.44.469q.708.274 1.297.599a8.468 8.468 0 01.266.152 8.173 8.173 0 011.075.826q.525.484.841.994a2.994 2.994 0 01.477 1.598 3.128 3.128 0 01-.053.541q-.099.561-.385 1.308a12.791 12.791 0 01-.1.251l-2.734 6.641 23.193-.049a4.207 4.207 0 011.217.16q1.811.548 1.811 2.965a6.113 6.113 0 01-3.845 5.845q-2.797 1.341-7.628 1.542a42.492 42.492 0 01-1.76.035l-17.871.049a1.162 1.162 0 00-.284.223q-.59.595-1.681 2.542a45.045 45.045 0 00-.037.067l-2.197 4.052a64.38 64.38 0 00-.385.711q-.529.995-.785 1.581a9.396 9.396 0 00-.002.003l-1.074 2.393a77.254 77.254 0 00-1.393 3.331q-1.879 4.834-1.879 7.313a10.205 10.205 0 00.309 2.569 7.778 7.778 0 001.425 2.9 5.509 5.509 0 003.998 2.171 7.093 7.093 0 00.616.026 14.833 14.833 0 005.64-1.123q2.759-1.123 5.395-2.734a74.218 74.218 0 003.048-1.996q2.677-1.855 4.472-3.522 2.609-2.423 4.374-3.734a23.814 23.814 0 01.167-.123l3.418-2.393a18.925 18.925 0 011.248-.769q1.251-.7 2.185-.904a3.368 3.368 0 01.717-.084 10.21 10.21 0 011.687.126q2.993.504 3.095 3.014a4.424 4.424 0 01.003.18 6.163 6.163 0 01-.417 2.106q-.691 1.889-2.529 4.252a35.562 35.562 0 01-1.546 1.845zm-191.162-6.055l4.297-3.515q2.879-2.383 5.579-3.151a9.207 9.207 0 012.526-.365 4.091 4.091 0 01.638.046q.887.14 1.218.711a3.062 3.062 0 01.329.854q.088.38.106.821a5.691 5.691 0 01.004.229 7.048 7.048 0 01-.178 1.548 8.719 8.719 0 01-.237.845 15.101 15.101 0 01-.567 1.439 19.415 19.415 0 01-.58 1.173 36.325 36.325 0 01-1.096 1.953q-1.036 1.711-2.029 2.832a39.576 39.576 0 01-1.642 1.74 51.787 51.787 0 01-1.898 1.8q-1.742 1.574-4.042 3.472a177.765 177.765 0 01-.768.63 99.93 99.93 0 01-3.708 2.876 122.546 122.546 0 01-2.444 1.762 86.05 86.05 0 01-6.787 4.322q-6.866 3.998-11.567 4.438a12.12 12.12 0 01-1.129.054 13.572 13.572 0 01-4.103-.591 10.711 10.711 0 01-5.223-3.608q-2.895-3.563-3.474-9.32a27.862 27.862 0 01-.09-1.129q-8.789 9.033-18.604 13.916a39.358 39.358 0 01-3.572 1.57q-3.731 1.408-6.584 1.408a29.274 29.274 0 01-3.435-.192q-1.822-.215-3.396-.673a17.384 17.384 0 01-.444-.136 15.945 15.945 0 01-4.563-2.287 14.942 14.942 0 01-.906-.716q-5.078-4.248-5.078-11.816a31.344 31.344 0 013.838-14.858 42.512 42.512 0 013.925-6.041 31.054 31.054 0 015.469-5.468 26.248 26.248 0 019.976-3.804 25.304 25.304 0 013.891-.298 8.12 8.12 0 011.708.167q1.91.412 2.882 1.835.48.698.531 1.768a5.442 5.442 0 01.006.258q0 .968-.428 2.172a11.384 11.384 0 01-.28.709q-.708 1.636-1.733 3.418a72.94 72.94 0 01-1.588 2.625 84.82 84.82 0 01-.683 1.062q-1.245 1.904-2.27 3.711-2.442 4.296-2.442 6.176t1.075 2.759a3.866 3.866 0 002.045.846 5.09 5.09 0 00.591.033 11.885 11.885 0 002.908-.34 9.18 9.18 0 003.001-1.345 43.186 43.186 0 003.634-2.815 49.592 49.592 0 001.2-1.066l4.589-4.493 4.444-4.589a78.39 78.39 0 012.161-2.128q3.082-2.911 4.933-3.849a6.872 6.872 0 01.108-.054 16.135 16.135 0 01.936-.42q1.755-.717 2.653-.483a7.059 7.059 0 011.279.476 9.362 9.362 0 011.016.574 14.728 14.728 0 011.588 1.19 17.379 17.379 0 01.707.641q2.636 2.539 2.929 4.59a8.242 8.242 0 01.019.371q.036 1.241-.217 3.379a52.666 52.666 0 01-.021.18q-.275 2.261-.312 3.297a8.264 8.264 0 00-.006.292 8.146 8.146 0 00.194 1.861q.723 3.071 4.152 3.071a7.797 7.797 0 002.477-.49q3.707-1.274 9.935-5.864a118.828 118.828 0 002.627-1.996zm414.893 0l4.296-3.515q2.88-2.383 5.579-3.151a9.207 9.207 0 012.527-.365 4.091 4.091 0 01.638.046q.886.14 1.217.711a3.062 3.062 0 01.33.854q.088.38.105.821a5.691 5.691 0 01.005.229 7.048 7.048 0 01-.179 1.548 8.719 8.719 0 01-.236.845 15.101 15.101 0 01-.568 1.439 19.415 19.415 0 01-.58 1.173 36.325 36.325 0 01-1.096 1.953q-1.035 1.711-2.029 2.832a39.576 39.576 0 01-1.641 1.74 51.787 51.787 0 01-1.899 1.8q-1.741 1.574-4.041 3.472a177.765 177.765 0 01-.768.63 99.93 99.93 0 01-3.708 2.876 122.546 122.546 0 01-2.445 1.762 86.05 86.05 0 01-6.787 4.322q-6.866 3.998-11.566 4.438a12.12 12.12 0 01-1.129.054 13.572 13.572 0 01-4.104-.591 10.711 10.711 0 01-5.222-3.608q-2.895-3.563-3.474-9.32a27.862 27.862 0 01-.091-1.129q-8.789 9.033-18.603 13.916a39.358 39.358 0 01-3.573 1.57q-3.73 1.408-6.583 1.408a29.274 29.274 0 01-3.436-.192q-1.822-.215-3.395-.673a17.384 17.384 0 01-.445-.136 15.945 15.945 0 01-4.562-2.287 14.942 14.942 0 01-.907-.716q-5.078-4.248-5.078-11.816a31.344 31.344 0 013.839-14.858 42.512 42.512 0 013.925-6.041 31.054 31.054 0 015.469-5.468 26.248 26.248 0 019.975-3.804 25.304 25.304 0 013.892-.298 8.12 8.12 0 011.708.167q1.91.412 2.882 1.835.48.698.531 1.768a5.442 5.442 0 01.006.258q0 .968-.428 2.172a11.384 11.384 0 01-.28.709q-.708 1.636-1.734 3.418a72.94 72.94 0 01-1.587 2.625 84.82 84.82 0 01-.683 1.062q-1.245 1.904-2.271 3.711-2.441 4.296-2.441 6.176t1.074 2.759a3.866 3.866 0 002.045.846 5.09 5.09 0 00.592.033 11.885 11.885 0 002.908-.34 9.18 9.18 0 003-1.345 43.186 43.186 0 003.635-2.815 49.592 49.592 0 001.199-1.066l4.59-4.493 4.443-4.589a78.39 78.39 0 012.161-2.128q3.082-2.911 4.934-3.849a6.872 6.872 0 01.108-.054 16.135 16.135 0 01.936-.42q1.755-.717 2.652-.483a7.059 7.059 0 011.279.476 9.362 9.362 0 011.016.574 14.728 14.728 0 011.589 1.19 17.379 17.379 0 01.706.641q2.637 2.539 2.93 4.59a8.242 8.242 0 01.019.371q.035 1.241-.217 3.379a52.666 52.666 0 01-.022.18q-.274 2.261-.311 3.297a8.264 8.264 0 00-.006.292 8.146 8.146 0 00.193 1.861q.724 3.071 4.153 3.071a7.797 7.797 0 002.477-.49q3.707-1.274 9.935-5.864a118.828 118.828 0 002.627-1.996zm-279.297-2.392l1.318-1.123a26.146 26.146 0 011.996-1.215q2.614-1.422 4.425-1.422a12.928 12.928 0 01.992.035q1.618.125 2.133.697a2.185 2.185 0 01.414.707q.245.655.245 1.637a8.334 8.334 0 01-.701 3.246q-.521 1.237-1.429 2.521a20.527 20.527 0 01-1.532 1.899q-4.742 5.759-12.533 11.003a87.532 87.532 0 01-2.457 1.595 59.541 59.541 0 01-6.673 3.656q-3.658 1.69-7.027 2.508a25.728 25.728 0 01-6.076.769 8.147 8.147 0 01-3.297-.63q-3.273-1.434-4.362-6.13a16.324 16.324 0 01-.007-.027 29.089 29.089 0 01-.488-2.347 24.666 24.666 0 01-.146-1.022 50.102 50.102 0 00-.185-1.34q-.374-2.451-.776-2.94a.473.473 0 00-.065-.066q-.537-.439-2.124.074a15.177 15.177 0 00-1.265.477q-.637.271-1.347.627a33.719 33.719 0 00-1.148.605 65.331 65.331 0 00-2.139 1.234q-1.269.763-2.67 1.671-11.887 7.897-15.177 10.027a81.315 81.315 0 01-.888.569 60.714 60.714 0 01-1.771 1.062q-3.587 2.063-5.016 2.063a8.555 8.555 0 01-3.442-.733 11.438 11.438 0 01-2.293-1.318 10.272 10.272 0 01-.661-.537 11.098 11.098 0 01-1.362-1.527q-.677-.931-.995-1.875a5.231 5.231 0 01-.28-1.676 57.375 57.375 0 011.561-13.665 45.803 45.803 0 014.884-12.214q4.297-7.471 10.547-10.352a15.676 15.676 0 016.836-1.514 15.248 15.248 0 012.274.155q2.937.445 3.92 2.174a4.11 4.11 0 01.496 2.066q0 2.491-2.731 7.922a71.087 71.087 0 01-.443.867l-1.465 2.881a84.959 84.959 0 00-.355.684q-1.16 2.261-1.16 2.659a.211.211 0 00.001.026 3.328 3.328 0 00.163.57q.114.286.273.481a1.086 1.086 0 00.883.414 2.277 2.277 0 00.672-.117q.99-.31 2.511-1.441a21.71 21.71 0 00.137-.102l8.984-6.69 4.493-3.125q7.37-4.82 11.044-5.065a5.755 5.755 0 01.381-.013 4.753 4.753 0 012.844.954 6.588 6.588 0 01.721.609 17.35 17.35 0 011.285 1.349q1.693 1.999 1.693 3.582a9.657 9.657 0 01-.017.554q-.014.248-.04.525a19.671 19.671 0 01-.065.581 357.255 357.255 0 01-.128 1.014 440.952 440.952 0 01-.14 1.086l-.196 2.295a18.824 18.824 0 00-.136 1.669 16.341 16.341 0 00-.01.577 11.403 11.403 0 00.091 1.51q.221 1.644.979 2.367a2.11 2.11 0 001.518.566 12.897 12.897 0 004.221-.797q3.793-1.323 8.558-4.839a71.663 71.663 0 003.725-2.957zm156.103-4.688l-2.246 2.442a60.898 60.898 0 00-1.096 1.183q-1.777 1.975-2.273 2.967a9.75 9.75 0 00-.957 3.747 11.552 11.552 0 00-.02.672 21.874 21.874 0 00.043 1.415q.093 1.429.387 2.41a6.48 6.48 0 00.01.032 11.272 11.272 0 00.819 2 9.993 9.993 0 00.353.613q1.187 2.003 2.402 2.484a2.081 2.081 0 00.772.152 3.215 3.215 0 001.223-.317q2.571-1.116 8.11-6.152a126.223 126.223 0 00.188-.171l4.297-3.955a9.653 9.653 0 01-.147-1.038 13.115 13.115 0 01-.048-1.159 5.58 5.58 0 01.092-.969q.159-.898.591-2.01a20.428 20.428 0 01.871-1.923 27.358 27.358 0 011.009-1.788 31.14 31.14 0 011.853-2.686 36.589 36.589 0 01.979-1.22q1.636-1.953 3.491-3.565 2.72-2.303 5.251-3.098a8.692 8.692 0 012.611-.417 9.06 9.06 0 012.648.353q2.911.891 3.673 4.026a10.636 10.636 0 01.27 2.505 17.393 17.393 0 01-.668 4.659q-.609 2.194-1.773 4.521 0 1.771 1.878 2.98a6.805 6.805 0 00.075.047 2.273 2.273 0 00.835.336 3.157 3.157 0 00.606.055 2.646 2.646 0 00.708-.104q.585-.163 1.269-.58a18.454 18.454 0 001.615-1.108 21.558 21.558 0 00.631-.503l2.1-1.806q5.586-5.07 8.735-5.266a4.014 4.014 0 01.249-.008 3.988 3.988 0 011.102.145 3.083 3.083 0 011.291.734 13.578 13.578 0 01.626.606q1.034 1.072 1.034 1.689a3.446 3.446 0 01-.153.996 4.473 4.473 0 01-.238.615q-.39.83-1.025 1.88a26.362 26.362 0 01-.87 1.341 32.001 32.001 0 01-.595.832 199.411 199.411 0 01-1.377 1.855q-2.286 3.039-3.335 4.126a34.743 34.743 0 01-1.452 1.416 45.729 45.729 0 01-1.673 1.465 23.301 23.301 0 01-3.186 2.227 26.574 26.574 0 01-.818.459 21.863 21.863 0 01-2.996 1.324 26.827 26.827 0 01-2.009.629 19.508 19.508 0 01-2.458.49q-1.214.167-2.591.229a37.807 37.807 0 01-1.713.038q-3.309 0-7.142-1.891a27.384 27.384 0 01-1.574-.844 127.817 127.817 0 01-5.184 4.326q-2.597 2.046-4.977 3.659a61.158 61.158 0 01-2.779 1.781 117.603 117.603 0 01-3.565 2.058q-5.771 3.187-8.857 3.832a6.901 6.901 0 01-1.396.165 31.735 31.735 0 01-4.076-.246q-2.047-.265-3.746-.819a14.419 14.419 0 01-2.432-1.035q-9.082-5.127-9.082-20.068a30.301 30.301 0 014.834-16.455 20.207 20.207 0 015.653-5.991 19.429 19.429 0 013.527-1.919 16.494 16.494 0 012.636-.877 12.296 12.296 0 012.833-.344 41.412 41.412 0 011.672.032q1.495.06 2.6.236a16.797 16.797 0 012.001.441 14.068 14.068 0 011.1.365q3.271 1.221 3.271 3.125a6.603 6.603 0 01-.879 3.259 8.754 8.754 0 01-.683 1.038q-1.563 2.051-2.735 3.32zM106.833 54.102l8.692-6.69q3.334-2.661 6.323-3.655a10.888 10.888 0 013.442-.593 5.513 5.513 0 011.16.111q1.693.366 1.928 1.94a3.648 3.648 0 01.037.537 6.809 6.809 0 01-.45 2.326q-.723 1.985-2.608 4.343a29.663 29.663 0 01-.75.899 107.207 107.207 0 01-8.751 9.003 130.589 130.589 0 01-6.093 5.255 74.343 74.343 0 01-7.592 5.382q-8.898 5.444-16.416 5.735a21.844 21.844 0 01-.845.016q-7.862 0-12.891-6.836a25.122 25.122 0 01-3.877-8.2q-1.348-4.841-1.348-10.941 0-11.528 8.218-24.83a99.115 99.115 0 017.163-10.033q9.654-12.019 18.211-16.404a29.129 29.129 0 01.197-.1 22.231 22.231 0 011.265-.598Q103.629 0 104.709 0a7.797 7.797 0 011.625.164 6.58 6.58 0 011.012.3 8.262 8.262 0 012.222 1.294 7.21 7.21 0 011.504 1.691 5.8 5.8 0 01.888 3.143q0 2.832-1.562 6.714a37.181 37.181 0 01-1.846 3.881q-1.159 2.129-2.695 4.395a70.859 70.859 0 01-7.947 9.689 95.899 95.899 0 01-9.094 8.182 23.603 23.603 0 00-2.231 6.566q-.535 2.81-.552 6.02a39.88 39.88 0 000 .207 10.441 10.441 0 001.645 5.597 13.066 13.066 0 00.503.751 10.14 10.14 0 001.271 1.44q1.668 1.538 3.563 1.538a6.532 6.532 0 002.016-.396q3.228-1.084 9.066-5.123a126.812 126.812 0 002.736-1.951zm129.2-.684l-1.758 1.172q-4.883 3.418-14.844 7.666 2.608 1.366 4.917 1.574a9.139 9.139 0 00.82.037q2.662 0 4.786-.634 1.825-.546 4.065-1.488a60.831 60.831 0 00.744-.319 71.369 71.369 0 003.137-1.465 91.592 91.592 0 002.6-1.343 106.134 106.134 0 005.397-3.105 116.548 116.548 0 00.78-.484 103.064 103.064 0 006.519-4.394 78.264 78.264 0 005.591-4.492 17.307 17.307 0 013.65-2.567 23.115 23.115 0 013.185-1.388q1.047-.337 1.894-.416a5.388 5.388 0 01.499-.024 2.975 2.975 0 01.97.145q1.319.454 1.372 2.335a5.668 5.668 0 01.002.157q0 1.683-1.097 4.195a22.951 22.951 0 01-.099.224 16.813 16.813 0 01-2.448 3.874 19.974 19.974 0 01-.995 1.106 68.24 68.24 0 01-2.735 2.664 87.972 87.972 0 01-2.416 2.146 77.259 77.259 0 01-3.15 2.551q-1.696 1.306-3.637 2.673a101.232 101.232 0 01-5.167 3.399 122.789 122.789 0 01-3.403 2.021q-4.687 2.686-9.961 4.834a66.174 66.174 0 01-12.192 3.734 53.315 53.315 0 01-10.415 1.052 27.086 27.086 0 01-8.279-1.227 23.557 23.557 0 01-6.321-3.119 18.702 18.702 0 01-3.45-3.029 11.847 11.847 0 01-3.093-8.006 20.161 20.161 0 013.101-10.554q1.838-3.042 4.766-5.983a46.196 46.196 0 013.12-2.848 66.786 66.786 0 0117.236-10.343 78.903 78.903 0 015.078-1.913q5.409-1.826 9.672-2.387a27.333 27.333 0 013.561-.25q4.394 0 7.421 2.149a7.953 7.953 0 012.203 2.359q.956 1.608 1.016 3.663a9.504 9.504 0 01.004.277 9.757 9.757 0 01-1.16 4.419q-2.214 4.367-8.654 9.301a52.541 52.541 0 01-1.311.994q-.606.443-1.159.816a29.418 29.418 0 01-.362.241zm414.892 0l-1.758 1.172q-4.882 3.418-14.843 7.666 2.607 1.366 4.917 1.574a9.139 9.139 0 00.82.037q2.661 0 4.785-.634 1.825-.546 4.065-1.488a60.831 60.831 0 00.745-.319 71.369 71.369 0 003.137-1.465 91.592 91.592 0 002.6-1.343 106.134 106.134 0 005.397-3.105 116.548 116.548 0 00.78-.484 103.064 103.064 0 006.518-4.394 78.264 78.264 0 005.591-4.492 17.307 17.307 0 013.65-2.567 23.115 23.115 0 013.186-1.388q1.047-.337 1.893-.416a5.388 5.388 0 01.5-.024 2.975 2.975 0 01.97.145q1.319.454 1.371 2.335a5.668 5.668 0 01.002.157q0 1.683-1.097 4.195a22.951 22.951 0 01-.099.224 16.813 16.813 0 01-2.447 3.874 19.974 19.974 0 01-.995 1.106 68.24 68.24 0 01-2.736 2.664 87.972 87.972 0 01-2.416 2.146 77.259 77.259 0 01-3.149 2.551q-1.697 1.306-3.638 2.673a101.232 101.232 0 01-5.167 3.399 122.789 122.789 0 01-3.402 2.021q-4.688 2.686-9.961 4.834a66.174 66.174 0 01-12.193 3.734 53.315 53.315 0 01-10.414 1.052 27.086 27.086 0 01-8.279-1.227 23.557 23.557 0 01-6.321-3.119 18.702 18.702 0 01-3.45-3.029 11.847 11.847 0 01-3.093-8.006 20.161 20.161 0 013.101-10.554q1.838-3.042 4.766-5.983a46.196 46.196 0 013.119-2.848 66.786 66.786 0 0117.237-10.343 78.903 78.903 0 015.078-1.913q5.409-1.826 9.671-2.387a27.333 27.333 0 013.561-.25q4.395 0 7.422 2.149a7.953 7.953 0 012.203 2.359q.956 1.608 1.016 3.663a9.504 9.504 0 01.004.277 9.757 9.757 0 01-1.16 4.419q-2.214 4.367-8.655 9.301a52.541 52.541 0 01-1.311.994q-.605.443-1.158.816a29.418 29.418 0 01-.363.241zm-216.162 9.619l-30.273-.049a2.069 2.069 0 01-.728-.117q-.981-.367-.981-1.885a7.185 7.185 0 01.473-2.52 9.472 9.472 0 01.625-1.337q1.099-1.953 2.076-2.759a14.513 14.513 0 012.099-1.44q2.442-1.27 4.297-1.27h28.271a2.168 2.168 0 011.178.353 2.873 2.873 0 01.287.209q.684.561.684 1.538a6.728 6.728 0 01-.344 2.072q-.263.814-.726 1.661a12.229 12.229 0 01-.224.393 14.679 14.679 0 01-2.112 2.77 13.087 13.087 0 01-.964.892 7.38 7.38 0 01-1.333.9q-1.027.532-2.077.584a4.611 4.611 0 01-.228.005zm-220.605-7.568l2.685-1.367a78.936 78.936 0 001.172-.62q.549-.296 1.034-.572a47.236 47.236 0 00.138-.078 436.944 436.944 0 003.4-1.971q6.72-3.94 7.83-5.011a15.397 15.397 0 00.465-.466q.688-.723.851-1.137a.633.633 0 00.052-.228q0-.396-.175-.894a4.826 4.826 0 00-.118-.303 4.344 4.344 0 00-.782-1.22 5.148 5.148 0 00-.708-.692q-.855-.676-1.782-.676a8.367 8.367 0 00-1.385.123q-.727.122-1.52.366a17.72 17.72 0 00-2.394.938 20.498 20.498 0 00-.804.405 19.648 19.648 0 00-3.101 2.05q-1.489 1.197-2.612 2.564a17.688 17.688 0 00-1.193 1.575q-1.123 1.688-1.342 3.086a4.264 4.264 0 00-.053.661q0 2.246.342 3.467zm414.892 0l2.686-1.367a78.936 78.936 0 001.171-.62q.549-.296 1.035-.572a47.236 47.236 0 00.138-.078 436.944 436.944 0 003.4-1.971q6.719-3.94 7.83-5.011a15.397 15.397 0 00.465-.466q.687-.723.851-1.137a.633.633 0 00.051-.228q0-.396-.174-.894a4.826 4.826 0 00-.119-.303 4.344 4.344 0 00-.781-1.22 5.148 5.148 0 00-.709-.692q-.854-.676-1.781-.676a8.367 8.367 0 00-1.386.123q-.726.122-1.52.366a17.72 17.72 0 00-2.394.938 20.498 20.498 0 00-.804.405 19.648 19.648 0 00-3.1 2.05q-1.49 1.197-2.613 2.564a17.688 17.688 0 00-1.192 1.575q-1.123 1.688-1.342 3.086a4.264 4.264 0 00-.054.661q0 2.246.342 3.467z" vector-effect="non-scaling-stroke" stroke-linecap="round" font-size="12" stroke="#000" stroke-width=".945"/>
</svg>
